<?xml version="1.0" encoding="UTF-8"?>
<svg height="128px" viewBox="0 0 128 128" width="128px" xmlns="http://www.w3.org/2000/svg" xmlns:xlink="http://www.w3.org/1999/xlink">
    <linearGradient id="a" gradientUnits="userSpaceOnUse" x1="31.146301" x2="49.836303" y1="28.117825" y2="28.117825">
        <stop offset="0" stop-color="#77767b"/>
        <stop offset="0.09" stop-color="#c0bfbc"/>
        <stop offset="0.84" stop-color="#9a9996"/>
        <stop offset="0.95" stop-color="#9a9996"/>
        <stop offset="0.97" stop-color="#c0bfbc"/>
        <stop offset="1" stop-color="#77767b"/>
    </linearGradient>
    <linearGradient id="b" gradientUnits="userSpaceOnUse" x1="24.536315" x2="88.586303" y1="94.667824" y2="94.667824">
        <stop offset="0" stop-color="#77767b"/>
        <stop offset="0.04" stop-color="#c0bfbc"/>
        <stop offset="0.3" stop-color="#9a9996"/>
        <stop offset="0.72" stop-color="#9a9996"/>
        <stop offset="0.96" stop-color="#c0bfbc"/>
        <stop offset="1" stop-color="#77767b"/>
    </linearGradient>
    <linearGradient id="c" gradientUnits="userSpaceOnUse" x1="24.66632" x2="97.296325" y1="64.567825" y2="64.567825">
        <stop offset="0.47" stop-color="#77767b"/>
        <stop offset="0.69" stop-color="#9a9996"/>
        <stop offset="0.69" stop-color="#c0bfbc"/>
        <stop offset="0.95" stop-color="#9a9996"/>
        <stop offset="0.97" stop-color="#c0bfbc"/>
        <stop offset="1" stop-color="#77767b"/>
    </linearGradient>
    <path d="m 46.90625 35.257812 l -3.140625 3.148438 l -8.078125 -8.089844 l -2.703125 -2.699218 c -1.019531 -1.019532 -1.476563 -2.28125 -1.476563 -3.519532 v -6.269531 c 0 1.070313 0.347657 2.167969 1.117188 3.109375 c 0.109375 0.140625 0.230469 0.269531 0.359375 0.398438 z m 0 0" fill="url(#a)"/>
    <path d="m 88.585938 97.308594 v 6.25 c 0 0.4375 -0.109376 0.878906 -0.320313 1.277344 c -0.089844 0.140624 -0.1875 0.292968 -0.289063 0.421874 c -0.058593 0.078126 -0.128906 0.140626 -0.191406 0.210938 c -0.257812 0.25 -0.527344 0.507812 -0.800781 0.757812 l -0.089844 0.089844 c -0.160156 0.160156 -0.328125 0.320313 -0.5 0.460938 c -0.089843 0.089844 -0.1875 0.171875 -0.277343 0.25 c -0.332032 0.308594 -0.679688 0.589844 -1.019532 0.878906 c -0.132812 0.113281 -0.25 0.203125 -0.390625 0.3125 c -0.152343 0.117188 -0.3125 0.257812 -0.472656 0.367188 c -0.886719 0.691406 -1.808594 1.332031 -2.738281 1.933593 c -0.21875 0.148438 -0.449219 0.289063 -0.667969 0.417969 c -0.792969 0.480469 -1.582031 0.921875 -2.402344 1.339844 c -0.25 0.128906 -0.5 0.25 -0.75 0.371094 c -0.257812 0.128906 -0.519531 0.25 -0.78125 0.371093 c -0.269531 0.117188 -0.527343 0.238281 -0.808593 0.347657 c -0.191407 0.089843 -0.390626 0.171874 -0.609376 0.25 c -0.261718 0.109374 -0.53125 0.210937 -0.789062 0.3125 c -2.75 1.046874 -5.601562 1.738281 -8.492188 2.097656 c -0.277343 0.03125 -0.550781 0.070312 -0.828124 0.089844 h -0.019532 c -0.371094 0.050781 -0.730468 0.082031 -1.101562 0.101562 c -0.289063 0.027344 -0.578125 0.039062 -0.878906 0.050781 c -1.191407 0.066407 -2.382813 0.066407 -3.5625 0 c -0.308594 -0.011719 -0.609376 -0.03125 -0.886719 -0.050781 c -0.3125 -0.019531 -0.589844 -0.050781 -0.890625 -0.070312 c -0.152344 -0.011719 -0.3125 -0.03125 -0.460938 -0.0625 c -0.238281 -0.019532 -0.480468 -0.046876 -0.710937 -0.078126 c -0.289063 -0.03125 -0.570313 -0.058593 -0.839844 -0.109374 c -0.289063 -0.039063 -0.578125 -0.089844 -0.847656 -0.140626 c -0.523438 -0.089843 -1.03125 -0.179687 -1.53125 -0.308593 c -0.210938 -0.042969 -0.421875 -0.082031 -0.609375 -0.140625 c -1.519532 -0.351563 -3.011719 -0.800782 -4.472656 -1.359375 c -4 -1.480469 -7.789063 -3.703125 -11.179688 -6.621094 c -0.679688 -0.589844 -1.347656 -1.21875 -2 -1.859375 c -3.199219 -3.199219 -5.6875 -6.839844 -7.46875 -10.722656 c -1.53125 -3.339844 -2.539062 -6.847656 -3.03125 -10.429688 c -0.21875 -1.660156 -0.339844 -3.328125 -0.339844 -5 v -6.289062 c 0 1.039062 0.042969 2.082031 0.132813 3.109375 c 0.238281 2.769531 0.777343 5.519531 1.636719 8.179687 c 0.441406 1.410156 0.980468 2.792969 1.601562 4.140625 c 1.78125 3.890625 4.269531 7.53125 7.46875 10.722657 c 0.652344 0.648437 1.320312 1.277343 2 1.859374 c 3.390625 2.929688 7.179688 5.148438 11.179688 6.628907 c 1.460937 0.558593 2.953124 1.011719 4.472656 1.359375 c 0.1875 0.050781 0.398437 0.101562 0.609375 0.140625 c 0.5 0.128906 1.007812 0.21875 1.53125 0.300781 c 0.269531 0.050781 0.558593 0.109375 0.847656 0.140625 c 0.269531 0.046875 0.550781 0.078125 0.839844 0.117187 c 0.230469 0.03125 0.472656 0.0625 0.710937 0.082032 c 0.148438 0.027344 0.308594 0.039062 0.460938 0.050781 c 0.300781 0.027344 0.578125 0.046875 0.890625 0.078125 c 0.277343 0.019531 0.578125 0.039062 0.886719 0.050781 c 1.179687 0.058594 2.371093 0.058594 3.5625 0 c 0.300781 -0.011719 0.589843 -0.019531 0.878906 -0.050781 c 0.371094 -0.03125 0.730468 -0.058594 1.101562 -0.101562 h 0.019532 c 0.277343 -0.019532 0.550781 -0.058594 0.828124 -0.097657 c 2.890626 -0.351562 5.742188 -1.050781 8.492188 -2.089843 c 0.257812 -0.101563 0.527344 -0.210938 0.789062 -0.3125 c 0.21875 -0.078126 0.417969 -0.15625 0.609376 -0.257813 c 0.28125 -0.109375 0.539062 -0.230469 0.808593 -0.339844 c 0.261719 -0.121093 0.523438 -0.25 0.78125 -0.371093 c 0.25 -0.121094 0.5 -0.238282 0.75 -0.378907 c 0.820313 -0.421875 1.609375 -0.859375 2.402344 -1.332031 c 0.21875 -0.136719 0.449219 -0.277344 0.667969 -0.417969 c 0.371094 -0.242187 0.738281 -0.480469 1.101562 -0.742187 c 0.546875 -0.378906 1.097656 -0.769532 1.636719 -1.1875 c 0.160156 -0.121094 0.320313 -0.25 0.472656 -0.378906 c 0.140625 -0.101563 0.257813 -0.191407 0.390625 -0.300782 c 0.308594 -0.261718 0.617188 -0.519531 0.917969 -0.792968 c 0.039063 -0.027344 0.070313 -0.058594 0.101563 -0.089844 c 0.089843 -0.078125 0.1875 -0.160156 0.277343 -0.257813 c 0.203125 -0.171875 0.402344 -0.351562 0.589844 -0.539062 c 0.273437 -0.25 0.542969 -0.511719 0.800781 -0.769531 c 0.0625 -0.0625 0.132813 -0.132813 0.191406 -0.203126 c 0.101563 -0.128906 0.199219 -0.277343 0.289063 -0.417968 c 0.210937 -0.390625 0.320313 -0.820313 0.320313 -1.25 z m 0 0" fill="url(#b)"/>
    <path d="m 97.296875 63.085938 v 16.8125 c 0 3.699218 -3.71875 5.859374 -6.789063 4.648437 c -0.613281 -0.238281 -1.191406 -0.597656 -1.722656 -1.128906 l -13.929687 -13.929688 l -11.519531 11.53125 c -0.191407 0.179688 -0.351563 0.359375 -0.519532 0.539063 c -1.75 1.929687 -2.890625 4.210937 -3.410156 6.597656 c -1.039062 4.703125 0.269531 9.8125 3.929688 13.460938 c 5.261718 5.261718 13.539062 5.660156 19.261718 1.179687 c 0.46875 -0.359375 0.910156 -0.75 1.339844 -1.179687 c 0.269531 -0.269532 0.597656 -0.480469 0.9375 -0.597657 c 0.359375 -0.140625 0.75 -0.203125 1.140625 -0.183593 c -0.300781 0.273437 -0.609375 0.53125 -0.917969 0.792968 c -0.132812 0.109375 -0.25 0.199219 -0.390625 0.300782 c -0.152343 0.128906 -0.3125 0.257812 -0.472656 0.378906 c -0.539063 0.417968 -1.089844 0.808594 -1.636719 1.1875 c -0.363281 0.261718 -0.730468 0.5 -1.101562 0.742187 c -0.21875 0.140625 -0.449219 0.28125 -0.667969 0.417969 c -0.792969 0.472656 -1.582031 0.910156 -2.402344 1.332031 c -0.25 0.140625 -0.5 0.257813 -0.75 0.378907 c -0.257812 0.121093 -0.519531 0.25 -0.78125 0.371093 c -0.269531 0.109375 -0.527343 0.230469 -0.808593 0.339844 c -0.191407 0.101563 -0.390626 0.179687 -0.609376 0.257813 c -0.261718 0.101562 -0.53125 0.210937 -0.789062 0.3125 c -2.75 1.039062 -5.601562 1.738281 -8.492188 2.089843 c -0.277343 0.039063 -0.550781 0.078125 -0.828124 0.097657 h -0.019532 c -0.371094 0.042968 -0.730468 0.070312 -1.101562 0.101562 c -0.289063 0.03125 -0.578125 0.039062 -0.878906 0.050781 c -1.191407 0.058594 -2.382813 0.058594 -3.5625 0 c -0.308594 -0.011719 -0.609376 -0.03125 -0.886719 -0.050781 c -0.3125 -0.03125 -0.589844 -0.050781 -0.890625 -0.078125 c -0.152344 0 -0.3125 -0.023437 -0.460938 -0.050781 c -0.238281 -0.019532 -0.480468 -0.050782 -0.710937 -0.082032 c -0.289063 -0.039062 -0.570313 -0.070312 -0.839844 -0.117187 c -0.289063 -0.03125 -0.578125 -0.089844 -0.847656 -0.140625 c -0.523438 -0.082031 -1.03125 -0.171875 -1.53125 -0.300781 c -0.210938 -0.039063 -0.421875 -0.089844 -0.609375 -0.140625 c -1.519532 -0.347656 -3.011719 -0.800782 -4.472656 -1.359375 c -4 -1.480469 -7.789063 -3.699219 -11.179688 -6.628907 c -0.679688 -0.582031 -1.347656 -1.210937 -2 -1.859374 c -3.199219 -3.191407 -5.6875 -6.832032 -7.46875 -10.722657 c -0.210938 -0.460937 -0.410156 -0.917969 -0.601562 -1.378906 c -0.027344 -0.058594 -0.046876 -0.121094 -0.070313 -0.191406 c -0.199219 -0.46875 -0.367187 -0.929688 -0.527344 -1.398438 c -0.152343 -0.390625 -0.28125 -0.78125 -0.402343 -1.171875 c -0.070313 -0.199218 -0.128907 -0.410156 -0.1875 -0.609375 c -0.132813 -0.410156 -0.25 -0.828125 -0.359376 -1.238281 c -0.101562 -0.421875 -0.210937 -0.839844 -0.300781 -1.269531 c -0.050781 -0.210938 -0.101562 -0.429688 -0.140625 -0.652344 c -0.082031 -0.367187 -0.160156 -0.738281 -0.210937 -1.109375 c -0.121094 -0.609375 -0.210938 -1.21875 -0.277344 -1.839844 c -0.070313 -0.480468 -0.121094 -0.96875 -0.160156 -1.460937 c 0.027343 -0.277344 0.058593 -0.570313 0.089843 -0.859375 c 0.859376 -8.121094 4.410157 -15.988282 10.628907 -22.210938 l 11.519531 -11.519531 l -3.140625 -3.140625 l 3.140625 -3.148438 l -13.921875 -13.921874 c -0.128906 -0.128907 -0.25 -0.257813 -0.359375 -0.386719 c 0.871094 -1.113281 2.222656 -1.851563 3.871094 -1.851563 h 2.011718 l 22.359376 0.019532 h 31.429687 c 0.699219 0.011718 1.378906 0.152343 1.988281 0.421874 c 0.570313 0.25 1.089844 0.609376 1.53125 1.046876 c 0.640625 0.640624 1.109375 1.453124 1.328125 2.363281 c 0.042969 0.179687 0.070313 0.367187 0.089844 0.570312 c 0.03125 0.1875 0.042969 0.386719 0.042969 0.589844 v 8.207031 s 0.019531 30.769532 0.019531 30.769532 z m 0 0" fill="url(#c)"/>
    <path d="m 61.585938 108.027344 c -0.558594 0 -1.121094 -0.007813 -1.667969 -0.039063 c -0.320313 -0.011719 -0.601563 -0.03125 -0.851563 -0.050781 l -0.832031 -0.078125 c -0.136719 0 -0.207031 -0.011719 -0.277344 -0.023437 l -0.210937 -0.027344 c -0.210938 -0.019532 -0.417969 -0.039063 -0.621094 -0.070313 l -0.25 -0.03125 c -0.167969 -0.019531 -0.328125 -0.039062 -0.488281 -0.070312 h -0.082031 s -0.078126 -0.019531 -0.078126 -0.019531 c -0.191406 -0.019532 -0.371093 -0.058594 -0.550781 -0.089844 l -0.148437 -0.03125 c -0.460938 -0.066406 -0.941406 -0.148438 -1.390625 -0.269532 l -0.128907 -0.027343 c -0.160156 -0.03125 -0.332031 -0.070313 -0.480468 -0.113281 c -1.5 -0.347657 -2.921875 -0.777344 -4.261719 -1.289063 c -3.871094 -1.429687 -7.417969 -3.539063 -10.589844 -6.277344 c -0.597656 -0.511719 -1.230469 -1.101562 -1.890625 -1.761719 c -2.957031 -2.949218 -5.339844 -6.359374 -7.058594 -10.140624 c -0.199218 -0.4375 -0.390624 -0.871094 -0.570312 -1.308594 l -0.078125 -0.210938 c -0.183594 -0.417968 -0.332031 -0.839844 -0.480469 -1.261718 c -0.160156 -0.417969 -0.269531 -0.769532 -0.382812 -1.109376 c -0.070313 -0.199218 -0.109375 -0.339843 -0.148438 -0.480468 l -0.039062 -0.117188 c -0.132813 -0.410156 -0.242188 -0.800781 -0.339844 -1.179687 l -0.082031 -0.339844 c -0.070313 -0.273437 -0.128907 -0.542969 -0.1875 -0.820313 c -0.050781 -0.230468 -0.101563 -0.410156 -0.132813 -0.601562 c -0.078125 -0.390625 -0.148437 -0.710938 -0.199218 -1.019531 l -0.019532 -0.121094 c -0.101562 -0.527344 -0.191406 -1.078125 -0.261718 -1.679687 c -0.070313 -0.5 -0.117188 -0.949219 -0.148438 -1.398438 c -0.078125 -0.941406 -0.121094 -1.929688 -0.121094 -2.949219 c 0 -1.300781 0.070313 -2.582031 0.210938 -3.8125 c 0.191406 -1.847656 0.53125 -3.660156 1 -5.371093 c 1.570312 -5.886719 4.699218 -11.289063 9.058594 -15.636719 l 8.382812 -8.382813 l 4.546875 -4.570312 l -15.328125 -15.328125 c -0.050781 -0.050781 -0.101562 -0.101563 -0.140625 -0.148438 l -0.078125 -0.101562 c -0.550781 -0.671875 -0.671875 -1.371094 -0.671875 -1.839844 c 0 -1.480469 1.121094 -3.011719 2.992187 -3.011719 l 55.796876 0.019532 c 0.410156 0 0.8125 0.09375 1.179687 0.25 c 0.351563 0.160156 0.660156 0.363281 0.910156 0.621093 c 0.421875 0.421875 0.691407 0.890625 0.820313 1.429688 c 0.019531 0.070312 0.03125 0.171875 0.042968 0.292969 l 0.019532 0.128906 c 0.007812 0.089844 0.007812 0.179687 0.007812 0.269531 v 14.488281 s 0.019532 41.292969 0.019532 41.292969 c 0 1.878906 -1.527344 3 -3.007813 3 c -0.359375 0 -0.710937 -0.070313 -1.039063 -0.203125 c -0.390624 -0.160156 -0.730468 -0.378906 -1.042968 -0.679688 l -15.339844 -15.347656 l -12.929688 12.9375 c -0.21875 0.210938 -0.398437 0.410156 -0.597656 0.632813 c -3.582031 3.949219 -5.03125 9.429687 -3.871094 14.648437 c 0.667969 3.082032 2.210938 5.910156 4.46875 8.160156 c 3.132813 3.128907 7.289063 4.851563 11.710938 4.851563 c 3.679688 0 7.308594 -1.25 10.199219 -3.511719 c 0.519531 -0.398437 1.019531 -0.839844 1.519531 -1.339844 c 0.0625 -0.050781 0.140625 -0.109374 0.210938 -0.128906 c 0.140624 -0.0625 0.21875 -0.070312 0.300781 -0.070312 c 0.179687 0 0.359375 0.078125 0.507812 0.210937 c 0.183594 0.179688 0.222657 0.378907 0.222657 0.507813 c 0 0.121094 -0.019532 0.210937 -0.0625 0.289062 c -0.027344 0.050782 -0.058594 0.101563 -0.097657 0.140625 l -0.050781 0.050781 c -0.25 0.25 -0.5 0.5 -0.761719 0.730469 c -0.207031 0.210938 -0.367187 0.347657 -0.527343 0.480469 l -0.101563 0.089844 l -0.097656 0.109375 l -0.222657 0.199219 c -0.277343 0.25 -0.570312 0.5 -0.859374 0.742187 c -0.101563 0.078125 -0.179688 0.136719 -0.269532 0.207031 l -0.070312 0.050782 l -0.070313 0.0625 c -0.121093 0.097656 -0.238281 0.199218 -0.359375 0.289062 c -0.539062 0.417969 -1.058594 0.777344 -1.570312 1.140625 c -0.359375 0.257813 -0.691406 0.46875 -1.011719 0.679687 l -0.6875 0.429688 c -0.742187 0.4375 -1.492187 0.847656 -2.242187 1.238281 c -0.277344 0.152344 -0.488282 0.25 -0.699219 0.359375 l -0.75 0.363282 s -0.558594 0.238281 -0.699219 0.289062 l -0.109375 0.039062 l -0.101563 0.050782 c -0.109374 0.058594 -0.230468 0.097656 -0.347656 0.148437 l -0.832031 0.320313 c -2.578125 0.980468 -5.28125 1.640625 -8.019531 1.96875 c -0.28125 0.042968 -0.46875 0.070312 -0.667969 0.082031 h -0.160156 c -0.351563 0.050781 -0.703125 0.078125 -1.050781 0.109375 c -0.289063 0.03125 -0.53125 0.039062 -0.78125 0.039062 c -0.601563 0.03125 -1.160157 0.042969 -1.71875 0.042969 z m 0 0" fill="#3584e4"/>
    <path d="m 38.507812 16.816406 h 22.359376 s 31.429687 0.019532 31.429687 0.019532 c 0.160156 0 0.289063 0.042968 0.378906 0.082031 c 0.109375 0.050781 0.210938 0.109375 0.308594 0.21875 c 0.132813 0.132812 0.222656 0.269531 0.261719 0.429687 v 0.050782 v 0.121093 s 0.03125 0.097657 0.03125 0.097657 c 0 -0.007813 0 -0.019532 0 -0.019532 v 14.492188 s 0.019531 30.769531 0.019531 30.769531 v 10.519531 c 0 0.96875 -1 1 -1.011719 1 c -0.109375 0 -0.207031 -0.019531 -0.308594 -0.058594 c -0.140624 -0.050781 -0.25 -0.132812 -0.359374 -0.242187 l -13.929688 -13.929687 l -2.832031 -2.828126 l -14.347657 14.347657 c -0.25 0.25 -0.453124 0.472656 -0.660156 0.691406 c -4.019531 4.441406 -5.652344 10.578125 -4.351562 16.410156 c 0.75 3.46875 2.480468 6.628907 5.011718 9.160157 c 3.507813 3.507812 8.167969 5.4375 13.117188 5.4375 h 0.421875 h -0.011719 s -0.4375 0.183593 -0.4375 0.183593 l -0.332031 0.128907 c -2.4375 0.917968 -4.980469 1.550781 -7.558594 1.859374 h -0.039062 s -0.042969 0.011719 -0.042969 0.011719 h -0.046875 c -0.132813 0.027344 -0.261719 0.046875 -0.382813 0.058594 h -0.058593 l -0.210938 0.019531 c -0.328125 0.039063 -0.660156 0.058594 -0.988281 0.089844 h -0.042969 h -0.039062 c -0.199219 0.019531 -0.398438 0.019531 -0.597657 0.03125 h -0.03125 h -0.03125 c -0.527343 0.027344 -1.058593 0.039062 -1.578124 0.039062 c -0.519532 0 -1.050782 -0.011718 -1.570313 -0.039062 h -0.039063 h -0.042968 c -0.238282 0 -0.46875 -0.019531 -0.6875 -0.039062 c -0.140625 -0.011719 -0.28125 -0.03125 -0.410156 -0.042969 c -0.140626 -0.007813 -0.269532 -0.019531 -0.410157 -0.039063 h -0.082031 s -0.070312 -0.011718 -0.070312 -0.011718 h -0.039063 s -0.109375 -0.027344 -0.109375 -0.027344 l -0.230469 -0.019532 c -0.179687 -0.011718 -0.347656 -0.042968 -0.5 -0.0625 l -0.28125 -0.039062 c -0.128906 -0.019531 -0.25 -0.03125 -0.367187 -0.050781 l -0.160156 -0.027344 l -0.160157 -0.023437 c -0.128906 -0.007813 -0.25 -0.039063 -0.378906 -0.058594 l -0.160156 -0.03125 h -0.0625 s -0.058594 -0.019532 -0.058594 -0.019532 c -0.359375 -0.046874 -0.769531 -0.117187 -1.128906 -0.21875 l -0.132813 -0.03125 l -0.128906 -0.019531 c -0.121094 -0.019531 -0.230469 -0.050781 -0.339844 -0.078125 l -0.058594 -0.019531 h -0.0625 c -1.347656 -0.332031 -2.679687 -0.730469 -3.980468 -1.230469 c -3.617188 -1.339844 -6.96875 -3.332031 -9.96875 -5.921875 c -0.550782 -0.46875 -1.148438 -1.019531 -1.769532 -1.648437 c -2.789062 -2.78125 -5.03125 -5.992188 -6.660156 -9.550782 c -0.179687 -0.390624 -0.351562 -0.769531 -0.511718 -1.160156 l -0.019532 -0.089844 l -0.097656 -0.230468 c -0.140625 -0.328125 -0.28125 -0.691406 -0.421875 -1.121094 l -0.03125 -0.070312 l -0.027344 -0.066407 c -0.101562 -0.261719 -0.199219 -0.5625 -0.3125 -0.910156 l -0.019531 -0.070313 l -0.027344 -0.070312 c -0.042968 -0.101562 -0.070312 -0.210938 -0.101562 -0.320312 l -0.039063 -0.121094 v -0.03125 s -0.019531 -0.027344 -0.019531 -0.027344 c -0.109375 -0.339844 -0.210938 -0.691406 -0.300781 -1.019531 l -0.082031 -0.351563 c -0.058594 -0.25 -0.117188 -0.488281 -0.167969 -0.75 v -0.050781 s -0.019531 -0.050781 -0.019531 -0.050781 c -0.03125 -0.136719 -0.070313 -0.289063 -0.101563 -0.4375 v -0.070313 s -0.03125 -0.058593 -0.03125 -0.058593 c -0.066406 -0.300782 -0.128906 -0.59375 -0.15625 -0.800782 l -0.023437 -0.121094 l -0.019532 -0.121093 c -0.089844 -0.46875 -0.167968 -0.96875 -0.230468 -1.519531 v -0.058594 s -0.019532 -0.0625 -0.019532 -0.0625 c -0.050781 -0.339844 -0.089844 -0.738282 -0.128906 -1.226563 c -0.078125 -0.871093 -0.109375 -1.800781 -0.109375 -2.761719 c 0 -1.21875 0.070313 -2.429687 0.199219 -3.609374 c 0.179687 -1.730469 0.5 -3.429688 0.949218 -5.0625 c 1.480469 -5.539063 4.429688 -10.628907 8.53125 -14.726563 l 8.378907 -8.382813 l 3.140625 -3.148437 l 2.820312 -2.832031 l -2.820312 -2.816406 l -13.917969 -13.921876 s -0.03125 -0.03125 -0.042969 -0.039062 l -0.050781 -0.0625 c -0.136719 -0.179688 -0.207031 -0.359375 -0.207031 -0.578125 c 0 -0.011719 0.027344 -1.011719 0.988281 -1.011719 h 2.011719 m 0 -4 h -2.011719 c -3 0 -4.988281 2.453125 -4.988281 5.011719 c 0 1.070313 0.347656 2.167969 1.117187 3.109375 c 0.113281 0.140625 0.230469 0.269531 0.363281 0.398438 l 13.917969 13.921874 l -3.140625 3.148438 l -8.378906 8.382812 c -4.75 4.75 -7.949219 10.46875 -9.570312 16.527344 c -0.507813 1.863282 -0.859376 3.769532 -1.058594 5.679688 c -0.152344 1.339844 -0.222656 2.691406 -0.222656 4.03125 c 0 1.039062 0.042968 2.082031 0.132812 3.109375 c 0.039062 0.492187 0.089844 0.980469 0.160156 1.460937 c 0.070313 0.621094 0.160156 1.230469 0.277344 1.839844 c 0.050781 0.371094 0.132812 0.742188 0.210938 1.109375 c 0.039062 0.222656 0.089843 0.441406 0.140624 0.652344 c 0.089844 0.429687 0.199219 0.847656 0.300782 1.269531 c 0.109375 0.410156 0.230468 0.828125 0.359375 1.238281 c 0.058593 0.199219 0.121093 0.410157 0.191406 0.609375 c 0.117187 0.390625 0.25 0.78125 0.398437 1.171875 c 0.160157 0.46875 0.328126 0.929688 0.53125 1.398438 c 0.019532 0.070312 0.039063 0.132812 0.070313 0.191406 c 0.1875 0.460937 0.386719 0.917969 0.597656 1.378906 c 1.78125 3.890625 4.269531 7.53125 7.46875 10.722657 c 0.652344 0.648437 1.320313 1.277343 2 1.859374 c 3.390625 2.929688 7.183594 5.148438 11.183594 6.628907 c 1.457031 0.558593 2.949219 1.011719 4.46875 1.359375 c 0.1875 0.050781 0.398437 0.101562 0.609375 0.140625 c 0.5 0.128906 1.011719 0.21875 1.53125 0.300781 c 0.269531 0.050781 0.558594 0.109375 0.847656 0.140625 c 0.269532 0.046875 0.550782 0.078125 0.839844 0.117187 c 0.230469 0.03125 0.472656 0.0625 0.710938 0.082032 c 0.148437 0.027344 0.308593 0.039062 0.460937 0.050781 c 0.300781 0.027344 0.578125 0.046875 0.890625 0.078125 c 0.277344 0.019531 0.578125 0.039062 0.890625 0.050781 c 0.589844 0.03125 1.179687 0.050781 1.777344 0.050781 c 0.601562 0 1.191406 -0.019531 1.78125 -0.050781 c 0.300781 -0.011719 0.589843 -0.019531 0.878906 -0.050781 c 0.371094 -0.03125 0.730469 -0.058594 1.101563 -0.101562 h 0.019531 c 0.28125 -0.019532 0.550781 -0.058594 0.828125 -0.097657 c 2.890625 -0.351562 5.742187 -1.050781 8.492187 -2.089843 c 0.257813 -0.101563 0.527344 -0.210938 0.789063 -0.3125 c 0.21875 -0.078126 0.421875 -0.15625 0.609375 -0.257813 c 0.28125 -0.109375 0.539062 -0.230469 0.8125 -0.339844 c 0.257812 -0.121093 0.519531 -0.25 0.777343 -0.371093 c 0.25 -0.121094 0.5 -0.238282 0.75 -0.378907 c 0.820313 -0.421875 1.609376 -0.859375 2.402344 -1.332031 c 0.21875 -0.136719 0.449219 -0.277344 0.667969 -0.417969 c 0.371094 -0.242187 0.742187 -0.480469 1.101563 -0.742187 c 0.550781 -0.378906 1.097656 -0.769532 1.640624 -1.1875 c 0.160157 -0.121094 0.320313 -0.25 0.46875 -0.378906 c 0.140626 -0.101563 0.257813 -0.191407 0.390626 -0.300782 c 0.308593 -0.261718 0.617187 -0.519531 0.917968 -0.792968 c 0.042969 -0.027344 0.070313 -0.058594 0.101563 -0.089844 c 0.089843 -0.078125 0.191406 -0.160156 0.28125 -0.257813 c 0.199219 -0.171875 0.398437 -0.351562 0.589843 -0.539062 c 0.269532 -0.25 0.539063 -0.511719 0.796876 -0.769531 c 0.0625 -0.0625 0.132812 -0.132813 0.191406 -0.203126 c 0.101562 -0.128906 0.199218 -0.277343 0.289062 -0.417968 c 0.210938 -0.390625 0.320313 -0.820313 0.320313 -1.25 v -0.039063 c 0 -0.703125 -0.269531 -1.390625 -0.800781 -1.921875 l -0.027344 -0.03125 c -0.53125 -0.507812 -1.210938 -0.769531 -1.890625 -0.769531 c -0.332031 0 -0.671875 0.0625 -0.992188 0.191406 c -0.328125 0.121094 -0.648437 0.320313 -0.917969 0.578125 c 0 0 -0.007812 0.007813 -0.019531 0.019532 c -0.429687 0.433593 -0.871093 0.820312 -1.339843 1.183593 c -2.632813 2.058594 -5.800782 3.089844 -8.960938 3.089844 c -3.730469 0 -7.449219 -1.421875 -10.300781 -4.273437 c -2.050781 -2.046876 -3.359375 -4.546876 -3.929688 -7.179688 c -0.988281 -4.457031 0.152344 -9.277344 3.410157 -12.878906 c 0.171874 -0.191406 0.332031 -0.359375 0.519531 -0.550782 l 11.519531 -11.519531 l 13.929688 13.929688 c 0.53125 0.53125 1.113281 0.890625 1.722656 1.132812 c 0.578125 0.226563 1.179687 0.339844 1.777344 0.339844 c 2.5625 0 5.011718 -1.992187 5.011718 -5 v -41.292969 s -0.019531 -8.207031 -0.019531 -8.207031 v -6.28125 c 0 -0.210937 -0.011719 -0.398437 -0.039063 -0.589844 c -0.023437 -0.210937 -0.050781 -0.390625 -0.089843 -0.570312 c -0.222657 -0.921875 -0.691407 -1.71875 -1.332031 -2.359375 c -0.441407 -0.449219 -0.960938 -0.800782 -1.53125 -1.050782 c -0.609376 -0.269531 -1.289063 -0.421874 -1.988282 -0.421874 h -31.429687 s -22.359375 -0.019532 -22.359375 -0.019532 z m 0 0" fill="#ffffff"/>
</svg>
